<svg xmlns="http://www.w3.org/2000/svg" width="907" height="535" viewBox="0 0 907 535" role="img" aria-labelledby="title desc">
<title id="title">TuAgenciaWeb logo</title>
<desc id="desc">Logo vectorizado en SVG con fondo transparente.</desc>
<path d="M 633 522 L 632 523 L 632 524 L 633 525 L 635 525 L 635 523 L 634 522 Z M 344 522 L 347 525 L 349 525 L 349 524 L 347 522 Z M 177 524 L 177 525 L 188 525 L 188 524 L 187 523 L 180 523 L 178 521 L 178 523 Z M 558 514 L 556 514 L 555 515 L 555 517 L 556 518 L 557 517 L 556 516 L 556 515 L 557 514 Z M 271 515 L 270 514 L 268 514 L 267 515 L 267 518 L 268 518 L 268 516 L 269 515 Z M 229 510 L 228 511 L 226 511 L 225 512 L 225 520 L 230 525 L 232 525 L 232 523 L 229 521 L 229 520 L 227 517 L 227 514 L 228 513 Z M 178 509 L 178 517 L 180 515 L 178 513 Z M 725 508 L 720 519 L 721 521 L 719 522 L 718 525 L 720 525 L 721 524 L 720 522 L 723 520 L 723 518 L 726 512 L 727 512 L 730 516 L 730 517 L 727 519 L 728 520 L 730 520 L 734 525 L 736 525 L 729 508 L 727 509 Z M 757 507 L 751 507 L 746 509 L 746 525 L 756 525 L 759 523 L 758 522 L 755 522 L 751 525 L 748 523 L 748 510 L 750 508 L 753 508 L 757 510 L 758 512 L 762 515 L 762 517 L 761 511 Z M 712 507 L 707 507 L 704 509 L 704 525 L 706 525 L 706 510 L 708 508 L 712 508 Z M 682 507 L 681 508 L 681 525 L 692 525 L 692 524 L 691 523 L 688 523 L 687 524 L 686 524 L 683 521 L 683 507 Z M 668 507 L 667 507 L 667 519 L 666 520 L 666 521 L 663 524 L 663 525 L 666 525 L 669 522 L 669 508 Z M 654 507 L 654 520 L 655 521 L 655 522 L 656 522 L 657 521 L 659 523 L 658 524 L 658 525 L 660 525 L 660 523 L 659 523 L 657 521 L 657 520 L 655 520 L 654 519 L 656 517 L 656 508 L 655 507 Z M 608 507 L 608 525 L 620 525 L 620 523 L 612 523 L 610 521 L 610 519 L 611 518 L 611 515 L 610 516 L 609 516 L 608 515 L 610 513 L 610 509 Z M 586 507 L 584 509 L 585 511 L 585 515 L 583 518 L 583 524 L 585 525 L 583 523 L 583 519 L 584 518 L 589 518 L 595 525 L 597 525 L 596 522 L 594 520 L 594 518 L 597 515 L 597 510 L 594 507 L 592 507 L 592 509 L 595 513 L 592 516 L 588 516 L 585 513 L 585 511 L 588 508 Z M 518 507 L 514 511 L 514 513 L 513 514 L 513 519 L 514 520 L 514 521 L 518 525 L 521 525 L 521 524 L 519 522 L 518 522 L 517 521 L 517 520 L 515 518 L 515 517 L 514 516 L 514 514 L 515 513 L 516 513 L 517 512 L 517 511 L 519 509 L 519 507 Z M 494 507 L 494 519 L 496 521 L 496 523 L 495 524 L 495 525 L 505 525 L 505 524 L 504 523 L 498 523 L 496 521 L 496 507 Z M 472 507 L 472 525 L 483 525 L 484 524 L 483 523 L 476 523 L 474 521 L 474 507 Z M 419 507 L 419 525 L 421 525 L 421 520 L 423 518 L 426 519 L 430 525 L 433 525 L 429 519 L 432 515 L 430 512 L 432 509 L 430 507 L 427 507 L 426 508 Z M 421 510 L 423 508 L 426 508 L 427 509 L 428 509 L 430 511 L 430 513 L 427 516 L 423 516 L 421 514 Z M 394 507 L 394 525 L 396 525 L 396 520 L 398 518 L 401 519 L 402 521 L 406 524 L 405 525 L 408 525 L 405 523 L 406 522 L 404 519 L 405 518 L 405 516 L 408 514 L 407 509 L 405 507 L 399 508 L 403 509 L 405 511 L 405 514 L 402 516 L 398 516 L 396 514 L 396 508 Z M 374 507 L 370 514 L 370 516 L 368 519 L 368 521 L 366 525 L 368 525 L 372 520 L 378 520 L 382 525 L 384 525 L 384 523 L 381 518 L 381 516 L 378 511 L 378 509 Z M 375 512 L 377 514 L 377 515 L 378 516 L 378 518 L 377 519 L 374 519 L 372 517 L 373 516 L 373 514 Z M 322 507 L 322 525 L 334 525 L 334 524 L 333 523 L 326 523 L 324 521 L 324 509 Z M 295 507 L 295 525 L 306 525 L 311 520 L 311 512 L 309 511 L 306 507 Z M 299 508 L 302 508 L 306 510 L 309 514 L 309 517 L 307 521 L 304 523 L 301 523 L 300 524 L 299 524 L 297 521 L 297 510 Z M 199 507 L 199 525 L 201 525 L 201 515 L 202 514 L 208 518 L 207 519 L 212 525 L 214 525 L 212 525 L 210 523 L 214 517 L 214 507 L 212 507 L 212 517 L 211 518 L 208 516 L 202 508 Z M 123 507 L 114 508 L 114 510 L 112 512 L 112 518 L 114 520 L 113 525 L 122 525 L 126 522 L 125 521 L 127 520 L 128 518 L 128 514 L 127 513 L 127 511 Z M 116 508 L 119 508 L 123 510 L 126 516 L 125 517 L 125 519 L 120 523 L 116 523 L 114 521 L 114 510 Z M 804 506 L 801 509 L 801 514 L 803 516 L 808 517 L 811 521 L 807 525 L 804 522 L 802 523 L 800 522 L 800 523 L 802 525 L 811 525 L 813 523 L 814 519 L 810 515 L 806 514 L 803 511 L 806 508 L 808 508 L 811 510 L 813 509 L 810 506 Z M 778 506 L 776 507 L 773 510 L 774 511 L 772 512 L 772 515 L 773 516 L 772 521 L 776 525 L 780 525 L 780 524 L 775 520 L 774 518 L 774 513 L 778 509 L 782 508 L 784 509 L 790 516 L 787 520 L 783 523 L 783 525 L 785 525 L 790 521 L 790 511 L 784 506 Z M 635 506 L 631 509 L 631 513 L 634 516 L 638 517 L 641 519 L 641 522 L 639 524 L 639 525 L 641 525 L 644 522 L 644 518 L 641 515 L 638 515 L 633 511 L 636 508 L 640 509 L 641 507 L 640 506 Z M 521 506 L 522 508 L 526 509 L 530 514 L 530 517 L 528 521 L 524 524 L 524 525 L 527 525 L 532 520 L 532 512 L 529 508 L 525 506 Z M 447 507 L 444 510 L 445 511 L 443 512 L 442 514 L 443 521 L 447 525 L 456 525 L 457 524 L 456 522 L 457 521 L 452 525 L 446 520 L 445 518 L 445 513 L 450 507 L 451 508 L 453 508 L 458 512 L 459 514 L 459 518 L 461 519 L 461 511 L 457 507 L 455 507 L 454 506 L 450 506 L 449 508 Z M 348 506 L 345 509 L 345 514 L 347 516 L 352 517 L 355 519 L 355 521 L 353 523 L 353 525 L 355 525 L 357 523 L 358 519 L 358 520 L 356 521 L 354 518 L 355 516 L 354 515 L 349 514 L 347 511 L 350 508 L 352 508 L 355 510 L 356 510 L 356 508 L 353 506 Z M 233 506 L 233 508 L 236 508 L 237 509 L 238 509 L 240 511 L 240 512 L 242 515 L 242 517 L 241 518 L 241 519 L 240 520 L 239 523 L 238 524 L 237 523 L 236 524 L 236 525 L 238 525 L 238 524 L 239 523 L 240 524 L 243 521 L 243 520 L 244 519 L 244 513 L 243 512 L 243 511 L 239 507 L 238 507 L 237 506 Z M 156 506 L 152 509 L 152 513 L 155 516 L 161 518 L 162 519 L 162 521 L 158 525 L 155 522 L 154 522 L 153 524 L 154 525 L 162 525 L 165 522 L 165 518 L 163 516 L 157 514 L 154 511 L 157 508 L 159 508 L 162 510 L 164 509 L 161 506 Z M 203 504 L 204 504 L 205 503 L 207 503 L 208 504 L 209 504 L 211 502 L 208 502 L 207 501 L 204 501 L 203 502 Z M 123 446 L 120 449 L 121 448 L 123 450 L 123 455 L 124 455 L 124 454 L 123 453 Z M 362 412 L 362 414 L 360 416 L 324 416 L 322 414 L 322 416 L 362 416 Z M 199 410 L 199 414 L 197 416 L 196 416 L 197 416 L 198 417 L 199 417 Z M 281 394 L 280 395 L 282 397 L 282 394 Z M 402 388 L 402 397 L 406 393 L 404 395 L 402 393 Z M 301 78 L 346 78 L 348 80 L 349 79 L 351 79 L 352 78 Z" fill="#64748B" fill-rule="evenodd"></path>
<path d="M 543 388 L 543 454 L 551 454 L 553 455 L 554 454 L 554 388 Z M 74 389 L 74 435 L 79 447 L 83 451 L 91 455 L 104 456 L 114 453 L 122 446 L 124 448 L 124 454 L 135 455 L 136 388 L 123 389 L 123 431 L 121 436 L 115 442 L 108 445 L 97 444 L 89 438 L 86 429 L 86 388 Z M 574 394 L 578 403 L 591 397 L 604 397 L 609 399 L 616 407 L 617 416 L 615 418 L 608 415 L 592 414 L 577 419 L 572 424 L 569 431 L 569 440 L 572 447 L 579 453 L 590 456 L 606 454 L 615 447 L 617 449 L 618 455 L 628 455 L 628 408 L 621 394 L 613 389 L 604 387 L 588 388 Z M 580 433 L 581 432 L 581 430 L 586 425 L 593 422 L 605 422 L 606 423 L 611 423 L 612 424 L 614 424 L 617 427 L 617 434 L 614 440 L 608 445 L 603 447 L 590 447 L 586 445 L 581 440 Z M 484 390 L 473 398 L 467 408 L 465 414 L 465 428 L 468 438 L 476 448 L 490 455 L 503 456 L 519 451 L 527 444 L 527 442 L 519 436 L 515 441 L 504 446 L 496 446 L 485 441 L 481 437 L 477 429 L 476 417 L 481 406 L 486 401 L 492 398 L 508 398 L 519 407 L 527 399 L 519 392 L 506 387 L 494 387 Z M 390 388 L 390 454 L 401 454 L 401 414 L 404 406 L 410 400 L 417 397 L 428 398 L 436 404 L 439 411 L 439 454 L 451 454 L 451 411 L 447 398 L 440 391 L 430 387 L 420 387 L 413 389 L 403 397 L 401 395 L 401 388 Z M 330 389 L 321 394 L 311 408 L 309 416 L 309 427 L 312 437 L 320 448 L 333 455 L 348 456 L 360 453 L 371 445 L 371 443 L 364 437 L 356 444 L 350 446 L 338 446 L 331 443 L 325 437 L 321 427 L 323 425 L 375 425 L 375 416 L 372 405 L 365 395 L 355 389 L 348 387 Z M 321 414 L 325 405 L 329 401 L 337 397 L 348 397 L 353 399 L 359 404 L 363 412 L 363 415 L 361 417 L 323 417 Z M 294 388 L 283 389 L 283 395 L 281 397 L 276 392 L 263 387 L 252 387 L 239 392 L 230 401 L 226 410 L 225 425 L 230 438 L 236 445 L 247 451 L 265 452 L 274 448 L 281 442 L 283 444 L 282 457 L 278 464 L 273 468 L 265 471 L 253 471 L 235 463 L 230 470 L 233 474 L 251 481 L 266 481 L 281 476 L 289 469 L 293 461 L 295 449 Z M 251 398 L 268 398 L 274 401 L 282 411 L 283 424 L 281 430 L 275 437 L 268 441 L 251 441 L 247 439 L 238 428 L 237 414 L 239 409 L 247 400 Z M 157 394 L 161 402 L 174 397 L 190 398 L 198 405 L 200 415 L 196 417 L 191 415 L 176 414 L 169 415 L 160 419 L 155 424 L 152 431 L 152 439 L 156 448 L 167 455 L 173 456 L 189 454 L 198 447 L 201 450 L 200 454 L 211 454 L 211 406 L 206 396 L 200 391 L 188 387 L 171 388 Z M 163 433 L 165 429 L 169 425 L 177 422 L 193 423 L 194 424 L 197 424 L 200 427 L 200 435 L 198 439 L 191 445 L 187 447 L 182 447 L 181 448 L 179 448 L 178 447 L 173 447 L 169 445 L 164 440 Z M 23 370 L 23 386 L 21 388 L 12 389 L 11 399 L 21 399 L 23 401 L 24 442 L 27 448 L 37 455 L 49 456 L 59 453 L 57 443 L 52 445 L 44 445 L 36 437 L 36 401 L 38 399 L 57 399 L 57 388 L 38 388 L 36 386 L 36 370 Z M 545 362 L 541 367 L 541 372 L 545 376 L 552 376 L 556 372 L 556 366 L 552 362 Z M 217 12 L 217 77 L 215 79 L 163 79 L 163 128 L 215 128 L 217 130 L 218 213 L 226 241 L 242 269 L 260 288 L 286 305 L 307 313 L 333 318 L 361 318 L 391 312 L 420 300 L 441 286 L 458 270 L 433 209 L 424 227 L 407 245 L 387 258 L 362 266 L 341 267 L 316 261 L 300 252 L 286 239 L 276 223 L 271 206 L 271 134 L 273 132 L 285 132 L 294 117 L 313 98 L 326 89 L 349 79 L 273 79 L 271 77 L 270 61 L 271 12 Z" fill="#0F172A" fill-rule="evenodd"></path>
<path d="M 632 523 L 633 524 L 635 524 L 636 525 L 638 525 L 639 524 L 640 524 L 633 524 Z M 242 519 L 241 520 L 241 521 L 239 523 L 238 523 L 237 524 L 232 524 L 233 525 L 235 525 L 236 524 L 239 524 L 241 522 Z M 585 518 L 584 519 L 584 524 L 585 524 Z M 531 518 L 530 519 L 530 520 L 526 524 L 520 524 L 521 524 L 522 525 L 523 525 L 524 524 L 527 524 L 530 521 Z M 556 515 L 557 518 L 558 518 L 558 517 L 559 516 L 558 515 Z M 268 515 L 267 516 L 269 518 L 270 518 L 270 517 L 271 516 L 270 515 Z M 761 515 L 760 514 L 760 519 L 755 524 L 748 524 L 756 524 L 757 523 L 758 523 L 760 521 L 760 520 L 761 519 Z M 348 514 L 348 515 L 349 515 L 350 516 L 354 516 L 356 519 L 356 522 L 354 524 L 348 524 L 349 524 L 350 525 L 352 525 L 353 524 L 355 524 L 357 521 L 357 519 L 356 518 L 356 517 L 355 517 L 354 516 L 351 516 Z M 785 508 L 788 511 L 788 512 L 789 513 L 789 519 L 788 520 L 789 520 L 789 516 L 790 515 L 789 514 L 789 511 L 786 508 Z M 495 508 L 495 523 L 494 524 L 494 525 L 495 524 L 503 524 L 497 524 L 495 522 Z M 304 508 L 305 508 L 308 511 L 309 510 L 306 508 Z M 213 508 L 213 520 L 211 522 L 210 521 L 209 518 L 208 518 L 207 517 L 207 516 L 206 516 L 209 519 L 209 520 L 211 522 L 211 523 L 212 524 L 214 524 L 214 516 L 213 515 Z M 779 507 L 778 508 L 776 508 L 773 511 L 773 515 L 772 516 L 772 517 L 773 518 L 773 521 L 773 513 L 774 512 L 774 511 L 777 508 L 779 508 Z M 750 507 L 746 507 L 746 508 L 747 509 L 747 518 L 747 510 Z M 726 507 L 726 509 L 725 510 L 724 513 L 725 510 L 726 509 L 728 509 L 729 510 L 729 512 L 730 513 L 730 515 L 731 516 L 731 517 L 731 515 L 729 512 L 729 510 L 728 509 L 728 507 Z M 698 507 L 699 508 L 703 508 L 705 510 L 705 523 L 705 508 L 706 507 Z M 669 507 L 668 507 L 668 520 L 664 524 L 659 524 L 656 521 L 656 518 L 655 517 L 655 520 L 656 521 L 656 523 L 657 524 L 660 524 L 661 525 L 662 525 L 663 524 L 666 524 L 667 523 L 667 522 L 668 521 L 668 508 Z M 609 507 L 609 524 L 618 524 L 611 524 L 609 522 L 609 518 L 611 516 L 615 516 L 616 515 L 618 515 L 611 515 L 609 513 L 609 510 L 611 508 L 617 508 L 617 507 Z M 589 507 L 589 508 L 593 508 L 596 511 L 596 515 L 595 516 L 594 516 L 595 516 L 596 515 L 596 511 L 595 510 L 595 509 L 594 508 L 591 508 L 590 507 Z M 525 508 L 524 507 L 520 507 L 519 508 L 518 508 L 515 511 L 515 513 L 514 514 L 514 515 L 515 516 L 515 512 L 517 509 L 518 509 L 519 508 L 521 508 L 522 507 L 524 507 Z M 449 507 L 448 508 L 447 508 L 444 511 L 444 513 L 443 514 L 443 517 L 444 518 L 444 520 L 445 521 L 445 522 L 448 524 L 456 524 L 457 523 L 458 523 L 460 520 L 460 512 L 460 518 L 459 519 L 459 520 L 455 524 L 449 524 L 444 519 L 444 513 L 445 512 L 445 511 L 448 508 L 450 508 L 451 507 L 453 507 L 454 508 L 457 508 L 454 508 L 453 507 Z M 420 507 L 420 508 L 421 507 L 426 507 L 427 508 L 430 508 L 431 509 L 431 514 L 429 516 L 430 516 L 431 515 L 431 514 L 432 513 L 432 511 L 430 508 L 428 508 L 427 507 Z M 395 507 L 395 508 L 398 508 L 399 507 L 401 507 L 402 508 L 404 508 L 406 510 L 406 511 L 407 512 L 407 513 L 404 516 L 404 517 L 405 516 L 406 516 L 406 515 L 407 514 L 407 511 L 405 508 L 403 508 L 402 507 Z M 375 507 L 372 512 L 372 514 L 371 515 L 371 516 L 372 515 L 372 513 L 373 512 L 373 510 L 374 509 L 376 509 L 377 510 L 377 512 L 378 513 L 378 515 L 380 518 L 380 517 L 377 512 L 377 510 L 376 509 L 376 507 Z M 323 510 L 325 508 L 332 508 L 333 507 L 323 507 Z M 227 511 L 228 511 L 231 508 L 232 508 L 233 507 L 236 507 L 237 508 L 238 508 L 237 508 L 236 507 L 231 507 L 230 508 L 229 508 L 227 510 Z M 176 507 L 176 525 L 177 524 L 185 524 L 179 524 L 177 522 L 177 518 L 179 516 L 181 516 L 182 515 L 179 516 L 177 514 L 177 510 L 179 508 L 185 508 L 186 507 Z M 153 510 L 155 508 L 156 508 L 157 507 L 159 507 L 160 508 L 163 509 L 160 507 L 157 507 L 156 508 L 154 508 L 153 509 Z M 140 507 L 139 507 L 139 511 L 140 512 L 140 514 L 139 515 L 140 516 L 140 517 L 139 518 L 139 525 L 140 524 Z M 112 507 L 112 510 L 113 511 L 113 518 L 112 519 L 112 525 L 113 524 L 122 524 L 123 523 L 124 523 L 126 520 L 126 518 L 125 521 L 123 523 L 122 523 L 121 524 L 115 524 L 113 522 L 113 509 L 114 508 L 114 507 Z M 638 388 L 662 455 L 675 455 L 689 414 L 692 410 L 694 412 L 708 454 L 722 455 L 745 388 L 731 388 L 717 431 L 715 433 L 712 430 L 698 388 L 685 389 L 671 431 L 669 433 L 666 430 L 653 388 Z M 774 387 L 763 392 L 752 405 L 749 414 L 749 429 L 751 436 L 755 443 L 762 450 L 769 454 L 776 456 L 792 456 L 799 454 L 812 445 L 804 437 L 790 445 L 778 445 L 773 443 L 766 437 L 762 428 L 764 426 L 815 426 L 815 415 L 813 407 L 808 398 L 800 391 L 784 386 Z M 763 411 L 769 402 L 776 398 L 781 398 L 783 397 L 784 398 L 788 398 L 793 400 L 799 406 L 802 414 L 800 416 L 765 416 L 763 414 Z M 826 362 L 826 455 L 839 455 L 842 448 L 847 452 L 857 456 L 871 456 L 881 452 L 890 444 L 896 431 L 897 417 L 892 402 L 880 390 L 865 386 L 853 388 L 847 391 L 842 396 L 840 394 L 840 362 Z M 857 398 L 866 398 L 873 401 L 880 408 L 883 415 L 883 428 L 880 435 L 873 442 L 865 445 L 857 445 L 848 441 L 842 434 L 839 425 L 839 419 L 842 409 L 847 403 Z M 303 133 L 394 133 L 410 138 L 422 146 L 431 156 L 439 171 L 498 314 L 541 313 L 586 193 L 590 186 L 594 191 L 640 313 L 683 314 L 762 107 L 711 107 L 665 229 L 662 232 L 660 230 L 614 107 L 567 108 L 521 230 L 519 232 L 516 229 L 483 147 L 473 127 L 456 108 L 437 96 L 424 91 L 402 87 L 383 87 L 361 91 L 349 95 L 323 110 L 311 121 Z" fill="#2563EB" fill-rule="evenodd"></path>
</svg>